{"glyphs":{"0":{"ha":854,"x_min":72,"x_max":782,"o":"m 782 407 q 755 238 782 315 q 681 105 728 161 q 569 17 633 49 q 428 -14 504 -14 q 286 17 351 -14 q 174 105 221 49 q 99 238 126 161 q 72 407 72 315 q 99 576 72 499 q 174 709 126 653 q 286 797 221 765 q 428 829 351 829 q 569 797 504 829 q 681 709 633 765 q 755 576 728 653 q 782 407 782 499 m 628 407 q 613 521 628 469 q 572 610 599 572 q 508 667 544 647 q 428 688 471 688 q 345 667 382 688 q 281 610 308 647 q 240 521 254 572 q 225 407 225 469 q 240 293 225 344 q 281 205 254 242 q 345 148 308 168 q 428 128 382 128 q 508 148 471 128 q 572 205 544 168 q 613 293 599 242 q 628 407 628 344 z "},"1":{"ha":651,"x_min":61,"x_max":619,"o":"m 619 138 l 619 0 l 90 0 l 90 138 l 288 138 l 288 622 q 248 588 275 606 q 189 554 221 569 q 122 528 157 539 q 61 518 88 518 l 61 661 q 126 678 89 661 q 197 717 163 694 q 257 761 232 739 q 288 793 282 783 l 443 793 l 443 138 l 619 138 z "},"2":{"ha":772,"x_min":63,"x_max":704,"o":"m 63 0 q 72 108 63 58 q 106 202 81 158 q 174 285 131 246 q 285 361 217 324 q 376 410 333 388 q 452 454 419 432 q 504 501 485 476 q 524 557 524 525 q 485 637 524 601 q 375 672 447 672 q 306 662 338 672 q 249 635 275 651 q 204 600 224 619 q 169 563 185 581 l 72 675 q 116 713 86 690 q 188 757 146 736 q 285 792 231 778 q 403 807 339 807 q 523 790 469 807 q 613 742 576 772 q 669 669 650 711 q 689 578 689 626 q 668 487 689 526 q 617 418 647 447 q 550 367 586 389 q 483 329 514 346 q 422 296 456 315 q 356 253 388 276 q 301 200 325 229 q 267 138 276 171 l 704 138 l 704 0 l 63 0 z "},"3":{"ha":765,"x_min":46,"x_max":707,"o":"m 514 328 q 593 298 557 319 q 654 244 629 276 q 693 171 679 213 q 707 81 707 129 q 683 -37 707 15 q 613 -126 658 -89 q 504 -184 568 -164 q 361 -204 440 -204 q 175 -167 256 -204 q 46 -61 94 -131 l 139 44 q 224 -36 171 -7 q 358 -65 278 -65 q 499 -26 450 -65 q 549 90 549 13 q 493 217 549 171 q 329 263 438 263 l 292 263 l 292 382 l 333 382 q 476 426 426 382 q 526 536 526 469 q 481 634 526 603 q 365 665 436 665 q 240 635 294 665 q 154 547 186 604 l 60 651 q 188 759 100 718 q 382 800 275 800 q 506 782 450 800 q 603 732 563 764 q 667 654 644 700 q 689 553 689 608 q 676 474 689 511 q 641 406 664 436 q 586 355 618 375 q 514 328 554 335 z "},"4":{"ha":774,"x_min":29,"x_max":731,"o":"m 456 -176 l 456 44 l 29 44 l 29 181 l 504 793 l 608 793 l 608 183 l 731 183 l 731 44 l 608 44 l 608 -176 l 456 -176 m 183 183 l 472 183 l 472 560 l 183 183 z "},"5":{"ha":768,"x_min":44,"x_max":721,"o":"m 397 440 q 525 417 465 440 q 628 351 585 393 q 696 251 671 310 q 721 124 721 193 q 693 -11 721 50 q 617 -116 665 -72 q 504 -183 569 -160 q 364 -207 439 -207 q 174 -159 258 -207 q 44 -29 89 -111 l 135 58 q 235 -36 175 0 q 365 -72 296 -72 q 444 -58 408 -72 q 507 -19 481 -44 q 549 42 533 7 q 564 121 564 78 q 549 197 564 163 q 510 255 535 231 q 450 293 485 279 q 376 307 415 307 q 277 284 324 307 q 203 217 231 261 l 68 217 q 74 250 69 222 q 87 319 79 278 q 104 413 94 361 q 125 517 114 464 q 179 793 149 640 l 663 793 l 663 653 l 292 653 l 242 383 q 305 425 265 410 q 397 440 344 440 z "},"6":{"ha":842,"x_min":68,"x_max":785,"o":"m 785 328 q 757 194 785 257 q 681 85 729 132 q 568 13 633 39 q 428 -14 503 -14 q 280 16 346 -14 q 167 102 214 46 q 94 240 119 158 q 68 424 68 321 q 95 672 68 565 q 171 849 122 778 q 289 957 219 921 q 444 993 358 993 q 617 950 539 993 q 744 828 696 907 l 654 733 q 566 826 622 792 q 442 860 510 860 q 276 772 338 860 q 211 524 214 683 q 302 622 240 586 q 443 658 364 658 q 578 633 515 658 q 686 563 640 607 q 758 458 732 518 q 785 328 785 397 m 429 117 q 510 133 472 117 q 577 179 549 150 q 622 247 606 208 q 639 328 639 285 q 622 408 639 371 q 577 474 606 446 q 510 519 549 503 q 429 536 472 536 q 348 519 386 536 q 281 474 310 503 q 236 408 253 446 q 219 328 219 371 q 236 247 219 285 q 281 179 253 208 q 348 133 310 150 q 429 117 386 117 z "},"7":{"ha":785,"x_min":56,"x_max":775,"o":"m 535 669 l 56 669 l 56 810 l 775 810 l 283 -176 l 110 -176 l 535 669 z "},"8":{"ha":836,"x_min":65,"x_max":769,"o":"m 769 285 q 741 163 769 218 q 665 69 713 108 q 552 10 617 31 q 415 -11 488 -11 q 278 12 342 -11 q 167 75 214 35 q 92 171 119 115 q 65 292 65 226 q 81 372 65 335 q 120 440 96 410 q 174 492 144 469 q 235 528 204 514 q 138 604 178 553 q 97 721 97 656 q 126 834 97 785 q 202 917 156 883 q 306 969 249 951 q 418 986 363 986 q 531 969 474 986 q 634 918 588 951 q 710 835 681 885 q 739 722 739 786 q 698 605 739 657 q 599 528 657 553 q 663 490 632 513 q 718 435 694 467 q 756 367 742 404 q 769 285 769 329 m 615 294 q 598 366 615 335 q 552 419 581 397 q 488 453 524 442 q 417 464 453 464 q 344 452 379 464 q 281 418 308 440 q 238 365 254 396 q 221 294 221 333 q 238 224 221 256 q 283 172 256 193 q 347 138 311 150 q 418 126 382 126 q 491 139 456 126 q 554 174 526 151 q 599 226 582 196 q 615 294 615 257 m 251 715 q 267 657 251 682 q 306 615 282 632 q 359 590 329 599 q 418 581 389 581 q 476 590 447 581 q 529 616 506 599 q 568 659 553 633 q 583 718 583 685 q 569 773 583 749 q 533 815 556 797 q 480 841 510 832 q 417 850 450 850 q 353 840 383 850 q 301 813 324 831 q 265 771 278 796 q 251 715 251 746 z "},"9":{"ha":818,"x_min":47,"x_max":764,"o":"m 47 451 q 75 585 47 522 q 151 694 103 647 q 264 767 199 740 q 404 793 329 793 q 551 763 485 793 q 665 677 618 733 q 738 540 713 621 q 764 356 764 458 q 737 108 764 214 q 661 -70 710 1 q 542 -178 613 -142 q 388 -214 472 -214 q 215 -171 293 -214 q 88 -49 136 -128 l 178 46 q 266 -47 210 -12 q 390 -81 322 -81 q 556 8 494 -81 q 621 256 618 96 q 530 157 592 193 q 389 121 468 121 q 254 147 317 121 q 146 217 192 172 q 74 322 100 261 q 47 451 47 382 m 403 663 q 322 646 360 663 q 255 600 283 629 q 210 533 226 571 q 193 451 193 494 q 210 371 193 408 q 255 305 226 333 q 322 260 283 276 q 403 243 360 243 q 484 260 446 243 q 551 305 522 276 q 596 371 579 333 q 613 451 613 408 q 596 533 613 494 q 551 600 579 571 q 484 646 522 629 q 403 663 446 663 z "}," ":{"ha":340,"x_min":0,"x_max":0,"o":""},"Ǽ":{"ha":1368,"x_min":-12,"x_max":1313,"o":"m 824 1089 l 724 1119 l 803 1272 l 949 1272 l 824 1089 m 610 986 l 1300 986 l 1300 849 l 807 849 l 807 571 l 1225 571 l 1225 433 l 807 433 l 807 138 l 1313 138 l 1313 0 l 651 0 l 651 268 l 319 268 l 156 0 l -12 0 l 610 986 m 640 407 l 640 807 l 388 407 l 640 407 z "},"´":{"ha":338,"x_min":65,"x_max":290,"o":"m 165 831 l 65 861 l 144 1014 l 290 1014 l 165 831 z "},"Á":{"ha":939,"x_min":10,"x_max":931,"o":"m 10 0 l 407 986 l 535 986 l 931 0 l 765 0 l 660 268 l 279 268 l 176 0 l 10 0 m 471 813 l 307 383 l 629 383 l 471 813 m 506 1089 l 406 1119 l 485 1272 l 631 1272 l 506 1089 z "},"Ă":{"ha":939,"x_min":10,"x_max":931,"o":"m 10 0 l 407 986 l 535 986 l 931 0 l 765 0 l 660 268 l 279 268 l 176 0 l 10 0 m 471 813 l 307 383 l 629 383 l 471 813 m 471 1174 q 524 1201 501 1174 q 551 1272 547 1229 l 636 1272 q 624 1205 636 1236 q 589 1151 611 1174 q 536 1115 567 1128 q 471 1103 506 1103 q 405 1115 435 1103 q 353 1151 375 1128 q 318 1205 331 1174 q 306 1272 306 1236 l 390 1272 q 415 1203 390 1232 q 471 1174 439 1174 z "},"˘":{"ha":433,"x_min":51,"x_max":382,"o":"m 217 915 q 270 943 247 915 q 297 1014 293 971 l 382 1014 q 369 947 382 978 q 335 892 357 915 q 282 857 313 869 q 217 844 251 844 q 151 857 181 844 q 99 892 121 869 q 64 947 76 915 q 51 1014 51 978 l 136 1014 q 160 944 136 974 q 217 915 185 915 z "},"Â":{"ha":939,"x_min":10,"x_max":931,"o":"m 10 0 l 407 986 l 535 986 l 931 0 l 765 0 l 660 268 l 279 268 l 176 0 l 10 0 m 471 813 l 307 383 l 629 383 l 471 813 m 272 1140 l 417 1272 l 526 1272 l 671 1140 l 589 1101 l 471 1189 l 353 1101 l 272 1140 z "},"ˆ":{"ha":493,"x_min":47,"x_max":446,"o":"m 47 882 l 192 1014 l 301 1014 l 446 882 l 364 843 l 246 931 l 128 843 l 47 882 z "},"Ä":{"ha":939,"x_min":10,"x_max":931,"o":"m 10 0 l 407 986 l 535 986 l 931 0 l 765 0 l 660 268 l 279 268 l 176 0 l 10 0 m 471 813 l 307 383 l 629 383 l 471 813 m 285 1114 l 285 1267 l 413 1267 l 413 1114 l 285 1114 m 531 1114 l 531 1267 l 658 1267 l 658 1114 l 531 1114 z "},"¨":{"ha":571,"x_min":99,"x_max":472,"o":"m 99 854 l 99 1007 l 226 1007 l 226 854 l 99 854 m 344 854 l 344 1007 l 472 1007 l 472 854 l 344 854 z "},"À":{"ha":939,"x_min":10,"x_max":931,"o":"m 10 0 l 407 986 l 535 986 l 931 0 l 765 0 l 660 268 l 279 268 l 176 0 l 10 0 m 471 813 l 307 383 l 629 383 l 471 813 m 310 1274 l 456 1274 l 535 1121 l 438 1090 l 310 1274 z "},"`":{"ha":338,"x_min":65,"x_max":290,"o":"m 65 1014 l 211 1014 l 290 861 l 193 831 l 65 1014 z "},"Ā":{"ha":939,"x_min":10,"x_max":931,"o":"m 10 0 l 407 986 l 535 986 l 931 0 l 765 0 l 660 268 l 279 268 l 176 0 l 10 0 m 471 813 l 307 383 l 629 383 l 471 813 m 267 1153 l 267 1250 l 678 1250 l 678 1153 l 267 1153 z "},"¯":{"ha":571,"x_min":81,"x_max":492,"o":"m 81 894 l 81 992 l 492 992 l 492 894 l 81 894 z "},"Ą":{"ha":939,"x_min":10,"x_max":931,"o":"m 864 -261 q 765 -219 797 -250 q 732 -147 732 -187 q 842 0 732 -71 l 765 0 l 660 268 l 279 268 l 176 0 l 10 0 l 407 986 l 535 986 l 931 0 q 844 -67 871 -36 q 817 -126 817 -97 q 899 -185 817 -176 l 864 -261 m 471 813 l 307 383 l 629 383 l 471 813 z "},"˛":{"ha":378,"x_min":85,"x_max":283,"o":"m 217 -261 q 117 -219 150 -250 q 85 -147 85 -187 q 242 28 85 -58 l 283 0 q 197 -67 224 -36 q 169 -126 169 -97 q 251 -185 169 -176 l 217 -261 l 217 -261 z "},"Å":{"ha":939,"x_min":10,"x_max":931,"o":"m 10 0 l 407 986 l 535 986 l 931 0 l 765 0 l 660 268 l 279 268 l 176 0 l 10 0 m 471 813 l 307 383 l 629 383 l 471 813 m 347 1171 q 381 1246 347 1219 q 469 1272 415 1272 q 559 1246 525 1272 q 593 1171 593 1219 q 559 1097 593 1124 q 469 1069 525 1069 q 381 1097 415 1069 q 347 1171 347 1124 m 469 1222 q 430 1208 446 1222 q 414 1171 414 1194 q 430 1135 414 1150 q 469 1119 446 1119 q 510 1134 493 1119 q 526 1171 526 1149 q 510 1208 526 1194 q 469 1222 493 1222 z "},"˚":{"ha":357,"x_min":56,"x_max":301,"o":"m 56 913 q 90 988 56 961 q 178 1014 124 1014 q 267 988 233 1014 q 301 913 301 961 q 267 838 301 865 q 178 811 233 811 q 90 838 124 811 q 56 913 56 865 m 178 964 q 138 950 154 964 q 122 913 122 936 q 138 876 122 892 q 178 861 154 861 q 218 876 201 861 q 235 913 235 890 q 218 950 235 936 q 178 964 201 964 z "},"Ǻ":{"ha":939,"x_min":10,"x_max":931,"o":"m 535 1126 q 578 1092 563 1114 q 593 1038 593 1069 q 546 954 593 981 l 931 0 l 765 0 l 660 268 l 279 268 l 176 0 l 10 0 l 394 953 q 360 988 372 967 q 347 1038 347 1010 q 367 1097 347 1074 q 419 1132 386 1121 l 499 1275 l 644 1275 l 535 1126 m 471 813 l 307 383 l 629 383 l 471 813 m 469 1089 q 430 1075 446 1089 q 414 1038 414 1061 q 430 1001 414 1017 q 469 986 446 986 q 510 1001 493 986 q 526 1038 526 1015 q 510 1075 526 1061 q 469 1089 493 1089 z "},"Ã":{"ha":939,"x_min":10,"x_max":931,"o":"m 10 0 l 407 986 l 535 986 l 931 0 l 765 0 l 660 268 l 279 268 l 176 0 l 10 0 m 471 813 l 307 383 l 629 383 l 471 813 m 558 1113 q 503 1122 526 1113 q 459 1142 479 1131 q 419 1163 439 1154 q 378 1172 400 1172 q 341 1163 354 1172 q 321 1141 328 1153 q 312 1118 314 1129 q 310 1106 310 1107 l 224 1106 q 231 1143 224 1117 q 255 1197 238 1169 q 301 1244 272 1224 q 372 1265 329 1265 q 426 1256 403 1265 q 469 1235 449 1246 q 509 1214 489 1224 q 554 1204 529 1204 q 594 1214 579 1204 q 617 1236 610 1224 q 627 1259 625 1249 q 629 1272 629 1269 l 717 1272 q 709 1238 717 1264 q 683 1183 701 1211 q 635 1134 665 1156 q 558 1113 604 1113 z "},"˜":{"ha":592,"x_min":50,"x_max":543,"o":"m 385 854 q 329 863 353 854 q 285 884 306 872 q 246 905 265 896 q 204 914 226 914 q 167 904 181 914 q 147 883 154 894 q 138 860 140 871 q 136 847 136 849 l 50 847 q 57 885 50 858 q 81 938 64 911 q 127 986 99 965 q 199 1007 156 1007 q 252 997 229 1007 q 295 976 275 988 q 335 956 315 965 q 381 946 356 946 q 421 956 406 946 q 444 978 436 965 q 453 1001 451 990 q 456 1014 456 1011 l 543 1014 q 535 979 543 1006 q 510 925 528 953 q 461 876 492 897 q 385 854 431 854 z "}}}
